# xmcd
#
# Track frame offsets:
#	150
#	12419
#	26225
#	40047
#	52942
#	63624
#	77963
#	90163
#	103170
#	114661
#	125862
#	142717
#	154909
#	170128
#	183948
#	196293
#	208932
#	224386
#	239832
#	257439
#	275473
#	287826
#	292969
#	314060
#
# Disc length: 4403
#
# Revision: 2
# Processed by: cddbd v1.5.1PL0 Copyright (c) Steve Scherf et al.
# Submitted via: CDex 1.50beta10
# Normalized: r1:TRMNUM
#
DISCID=72113118
DTITLE=Hank Williams Jr. - Living Proof The MGM Recordings CD 3
DYEAR=1900
DGENRE=Country
TTITLE0=Hank (1972)  
TTITLE1=On The Banks Of The Old Pontchartrain (1973)  
TTITLE2=Alone And Forsaken (1974)  
TTITLE3=I Cried Again (1974)  
TTITLE4=I'll Think Of Something (1974)  
TTITLE5=Angels Are Hard To Find (1974)  
TTITLE6=Getting Over You (1974)  
TTITLE7=Free Born Man (1970)  
TTITLE8=The Night Time And My Baby (1973)  
TTITLE9=Honky Tonkin' (1973)  
TTITLE10=Satin Sheets (1974)  
TTITLE11=Country Love (1975)  
TTITLE12=My Girl (1975)  
TTITLE13=The Kind Of Woman I Got (1975)  
TTITLE14=There's A Devil In The Bottle (1975)  
TTITLE15=Stoned At The Jukebox (1975)  
TTITLE16=Montana Song (1975)  
TTITLE17=On Susan's Floor (1975)  
TTITLE18=Clovis, New Mexico (1975)  
TTITLE19=Brothers Of The Road (1975)  
TTITLE20=I Really Did (1975)  
TTITLE21=Losing You (1975)  
TTITLE22=Can't You See (1975)  
TTITLE23=Living Proof (1975)  
EXTD=
EXTT0=
EXTT1=
EXTT2=
EXTT3=
EXTT4=
EXTT5=
EXTT6=
EXTT7=
EXTT8=
EXTT9=
EXTT10=
EXTT11=
EXTT12=
EXTT13=
EXTT14=
EXTT15=
EXTT16=
EXTT17=
EXTT18=
EXTT19=
EXTT20=
EXTT21=
EXTT22=
EXTT23=
PLAYORDER=
